<?xml version="1.0" encoding="UTF-8"?>
<svg width="293px" height="101px" viewBox="0 0 293 101" version="1.1" xmlns="http://www.w3.org/2000/svg" xmlns:xlink="http://www.w3.org/1999/xlink">
    <title>Group</title>
    <g id="Page-1" stroke="none" stroke-width="1" fill="none" fill-rule="evenodd">
        <g id="bootcamp" transform="translate(-1465, -500)" fill="#000000">
            <g id="Group" transform="translate(1465, 500)">
                <path d="M20.4271975,80.6289103 L20.4271975,64.7520191 C20.4271975,53.5189219 11.2641326,44.3811214 9.62203594e-05,44.3811214 L9.62203594e-05,56.6341357 C4.4892571,56.6341357 8.14178195,60.2756685 8.14178195,64.7520191 L8.14178195,80.6289103 C8.14178195,91.861048 17.3048468,100.999904 28.5688832,100.999904 L28.5688832,88.746314 C24.0797223,88.746314 20.4271975,85.1047812 20.4271975,80.6289103" id="Fill-1"></path>
                <path d="M0,56.6192625 L0,44.3667279 C4.48916088,44.3667279 8.14168573,40.7242356 8.14168573,36.2483647 L8.14168573,20.3714735 C8.14168573,9.13885603 17.3047506,0 28.568787,0 L28.568787,12.25359 C24.0796261,12.25359 20.4271012,15.8951229 20.4271012,20.3714735 L20.4271012,36.2483647 C20.4271012,47.481462 11.2640364,56.6192625 0,56.6192625" id="Fill-2"></path>
                <path d="M87.0789443,20.3714735 L87.0789443,36.2483647 C87.0789443,47.481462 96.2420092,56.6193584 107.506046,56.6193584 L107.506046,44.3667279 C103.016885,44.3667279 99.3643598,40.7242356 99.3643598,36.2483647 L99.3643598,20.3714735 C99.3643598,9.13885603 90.201295,5.68434189e-14 78.9372586,5.68434189e-14 L78.9372586,12.25359 C83.4264195,12.25359 87.0789443,15.8951229 87.0789443,20.3714735" id="Fill-3"></path>
                <path d="M107.506527,44.3811214 L107.506527,56.6342316 C103.017366,56.6342316 99.3648409,60.2757644 99.3648409,64.7521151 L99.3648409,80.6290063 C99.3648409,91.861144 90.2017761,101 78.9377397,101 L78.9377397,88.74641 C83.4269006,88.74641 87.0794254,85.1048771 87.0794254,80.6290063 L87.0794254,64.7521151 C87.0794254,53.5190178 96.2424903,44.3811214 107.506527,44.3811214" id="Fill-4"></path>
                <polygon id="Fill-5" points="43.6214038 65.1874678 63.8834871 65.1874678 63.8834871 59.293846 43.6214038 59.293846"></polygon>
                <path d="M28.3130332,52.2303278 L35.405436,35.8122444 L41.5673878,35.8122444 L48.5749241,52.2303278 L42.5815504,52.2303278 L39.3302644,43.3903749 C38.9352798,42.295996 38.6552786,41.2850988 38.4873741,40.3591227 C38.3175451,41.2850988 38.0346573,42.295996 37.6425593,43.3903749 L34.2642625,52.2303278 L28.3130332,52.2303278 Z" id="Fill-6"></path>
                <path d="M58.9296781,52.2303278 L66.0220808,35.8122444 L72.185476,35.8122444 L79.1917614,52.2303278 L73.1981952,52.2303278 L69.9483526,43.3903749 C69.553368,42.295996 69.2719235,41.2850988 69.1040189,40.3591227 C68.9346711,41.2850988 68.6527455,42.295996 68.2592042,43.3903749 L64.8842751,52.2303278 L58.9296781,52.2303278 Z" id="Fill-7"></path>
                <path d="M138.352553,37.7183026 C145.167869,38.1775283 149.344337,43.0472867 149.344337,49.9381443 C149.344337,55.439125 147.343576,58.9327428 143.855983,60.7847863 C141.517726,62.0264895 139.256378,62.3443371 136.064083,62.3443371 C131.437,62.3443371 129.063403,61.4092205 128.805292,57.6594573 C128.713525,56.1041899 128.655663,53.5739724 128.655663,51.0206186 C128.655663,47.8602728 128.73604,44.1905826 128.835044,42.3414773 C129.052177,38.4831551 130.867141,37.6556629 136.064083,37.6556629 C136.915733,37.6556629 137.838165,37.682743 138.352553,37.7183026 Z M132.860901,42.9374036 L132.860663,42.9411734 C132.765739,44.3201123 132.682638,47.9608422 132.682638,51.1134021 C132.682638,53.6655889 132.746876,55.8735324 132.859602,56.9847442 C132.975356,58.0897597 133.573708,58.3463846 136.064083,58.3463846 C137.785087,58.3463846 138.720173,58.2880519 139.831766,58.0281784 C143.212879,57.2377261 145.138524,54.8480439 145.138524,49.9381443 C145.138524,45.0427508 142.307235,41.7154711 138.02299,41.7153709 C137.863558,41.7115237 137.589591,41.7057418 137.246799,41.6999582 C136.836604,41.6930374 136.432829,41.6880462 136.055246,41.6858149 C135.913374,41.6849765 135.776997,41.6845433 135.646796,41.6845433 C133.634733,41.6845433 132.919309,41.9273229 132.860901,42.9374036 Z M138.353122,37.7183395 L138.352553,37.7183026 C138.35254,37.7182997 138.352524,37.7182986 138.352508,37.7182975 Z" id="Shape" stroke="#000000" stroke-width="0.688674197" fill-rule="nonzero"></path>
                <path d="M169.344337,39.4751309 C169.344337,39.4939463 169.344337,39.4939463 169.344337,39.5052356 C169.344337,39.5165249 169.344337,39.5165249 169.344138,39.5470557 C169.256379,42.1249568 169.218623,44.8373992 169.218623,48.0248691 C169.218623,51.1827309 169.22923,52.6458662 169.28148,54.5274869 C169.28148,54.5764071 169.28148,54.5764071 169.28148,54.6328534 C169.28148,54.6892997 169.28148,54.6892997 169.28148,54.7382199 C169.28148,58.819737 166.296333,61.3443371 162.117143,61.3443371 C159.229677,61.3443371 157.655663,60.5486002 157.655663,58.7722513 C157.655663,57.6347892 158.509058,56.7420503 159.76,56.7420503 C160.076539,56.7420503 160.386462,56.7844601 160.681878,56.878784 C161.16432,57.032824 161.679396,57.1033069 162.211429,57.1033069 C163.939939,57.1033069 164.986208,56.1082173 165.041408,54.3121456 C165.09143,50.5748067 165.104234,49.3523668 165.104234,47.5431937 C165.104234,44.4398729 165.060627,41.9962727 164.947369,39.6093647 C164.902091,38.4817241 165.721359,37.6556629 167.177143,37.6556629 C168.37792,37.6556629 169.344337,38.3472842 169.344337,39.4751309 Z" id="Path" stroke="#000000" stroke-width="0.688674197" fill-rule="nonzero"></path>
                <path d="M200.364745,42.5154639 C200.364745,43.7409324 199.338926,44.7773268 198.153061,44.7773268 C197.459326,44.7773268 196.820686,44.4500393 196.323506,43.8137318 C195.255144,42.4852688 193.481279,41.746399 191.540816,41.746399 C187.015596,41.746399 183.956582,45.4922521 183.956582,50.0309278 C183.956582,54.240442 186.522053,58.0989619 191.571429,58.0989619 C193.894723,58.0989619 196.032781,57.184762 197.170773,55.6424585 C197.637574,55.0024128 198.242364,54.6969 198.94898,54.6969 C200.192715,54.6969 201.344337,55.7905846 201.344337,57.0206186 C201.344337,59.3666657 196.737837,62.3443371 191.72449,62.3443371 C184.443892,62.3443371 179.655663,57.0576064 179.655663,50.2474227 C179.655663,43.2601845 184.64732,37.6556629 191.846939,37.6556629 C196.315267,37.6556629 200.364745,40.2522272 200.364745,42.5154639 Z" id="Path" stroke="#000000" stroke-width="0.688674197" fill-rule="nonzero"></path>
                <path d="M234.344337,50 C234.344337,57.2666095 229.365447,62.3443371 222.485084,62.3443371 C215.610836,62.3443371 210.655663,57.2724212 210.655663,50 C210.655663,42.8894916 215.694781,37.6556629 222.485084,37.6556629 C229.281188,37.6556629 234.344337,42.8953977 234.344337,50 Z M214.834609,50 C214.834609,54.965393 218.104831,58.4082402 222.485084,58.4082402 C226.865337,58.4082402 230.135559,54.965393 230.135559,50 C230.135559,45.0020162 226.862462,41.5299041 222.485084,41.5299041 C218.107707,41.5299041 214.834609,45.0020162 214.834609,50 Z" id="Shape" stroke="#000000" stroke-width="0.688674197" fill-rule="nonzero"></path>
                <path d="M254.352553,37.7183026 C261.167869,38.1775283 265.344337,43.0472867 265.344337,49.9381443 C265.344337,55.439125 263.343576,58.9327428 259.855983,60.7847863 C257.517726,62.0264895 255.256378,62.3443371 252.064083,62.3443371 C247.437,62.3443371 245.063403,61.4092205 244.805292,57.6594573 C244.713525,56.1041899 244.655663,53.5739724 244.655663,51.0206186 C244.655663,47.8602728 244.73604,44.1905826 244.835044,42.3414773 C245.052177,38.4831551 246.867141,37.6556629 252.064083,37.6556629 C252.915733,37.6556629 253.838165,37.682743 254.352553,37.7183026 Z M248.860901,42.9374036 L248.860663,42.9411734 C248.765739,44.3201123 248.682638,47.9608422 248.682638,51.1134021 C248.682638,53.6655889 248.746876,55.8735324 248.859602,56.9847442 C248.975356,58.0897597 249.573708,58.3463846 252.064083,58.3463846 C253.785087,58.3463846 254.720173,58.2880519 255.831766,58.0281784 C259.212879,57.2377261 261.138524,54.8480439 261.138524,49.9381443 C261.138524,45.0427508 258.307235,41.7154711 254.02299,41.7153709 C253.863558,41.7115237 253.589591,41.7057418 253.246799,41.6999582 C252.836604,41.6930374 252.432829,41.6880462 252.055246,41.6858149 C251.913374,41.6849765 251.776997,41.6845433 251.646796,41.6845433 C249.634733,41.6845433 248.919309,41.9273229 248.860901,42.9374036 Z M254.353122,37.7183395 L254.352553,37.7183026 C254.35254,37.7182997 254.352524,37.7182986 254.352508,37.7182975 Z" id="Shape" stroke="#000000" stroke-width="0.688674197" fill-rule="nonzero"></path>
                <path d="M289.69091,37.7180757 C290.908054,37.7854343 291.666442,38.6243582 291.666442,39.7010309 C291.666442,40.8104716 290.814641,41.7154711 289.579098,41.7154472 C289.497328,41.7144831 289.497328,41.7144831 289.138373,41.7106198 C288.792038,41.7069977 288.414395,41.7033754 288.018115,41.6999947 C287.371693,41.6944799 286.740071,41.6901599 286.147222,41.687491 C285.718628,41.6855616 285.319595,41.6845433 284.955789,41.6845433 C281.966092,41.6845433 281.709998,41.7716483 281.644309,42.7592185 C281.615244,43.1252004 281.607759,43.5790743 281.602945,44.7975667 C281.599062,45.7802227 281.596093,46.1989603 281.586442,46.7835052 C281.586442,47.0588826 281.579546,47.0577248 284.896842,47.0577248 C285.024057,47.0577248 285.024057,47.0577248 285.151483,47.0577172 C286.938441,47.0575584 287.76799,47.0512742 288.178569,47.0273397 C289.086885,46.9762792 289.688154,47.3755463 289.989596,48.0504433 C290.145578,48.3996703 290.192758,48.7284873 290.192758,49.0103093 C290.192758,50.1820984 289.448133,51.117533 288.286316,51.117533 C288.227368,51.117533 288.227368,51.117533 288.110143,51.1163261 C287.411418,51.0576702 286.321209,51.0247495 285.162105,51.0247495 C281.775498,51.0247495 281.556969,51.0613756 281.556969,51.3608247 C281.556969,55.4875489 281.576472,56.5722438 281.643557,57.1707072 C281.758801,58.2832633 281.972948,58.3463846 286.075789,58.3463846 C287.739907,58.3463846 289.663925,58.3169825 290.261053,58.2845289 C290.301579,58.2845289 290.301579,58.2845289 290.334737,58.2845289 C290.367895,58.2845289 290.367895,58.2845289 290.408421,58.2845289 C291.563425,58.2845289 292.344337,59.137645 292.344337,60.2061856 C292.344337,61.333179 291.502503,62.2165466 290.170862,62.2813651 C289.757989,62.3146915 287.996965,62.3443371 286.341053,62.3443371 C284.70974,62.3443371 282.952385,62.3145942 282.541016,62.2813891 C279.443146,62.0340525 277.833843,60.7393816 277.714964,57.9949914 C277.665191,56.8981731 277.655663,55.5434844 277.655663,51.8865979 C277.655663,47.7737361 277.689032,43.7732599 277.744182,41.9505615 C277.805804,39.3640723 279.406638,37.8549333 282.047329,37.7181022 C282.620022,37.6847162 284.355091,37.6556629 285.928421,37.6556629 C287.528428,37.6556629 289.205862,37.6845988 289.69091,37.7180757 Z M289.695609,37.7183581 L289.69091,37.7180757 C289.690799,37.7180553 289.690683,37.7180489 289.690567,37.7180425 Z" id="Path" stroke="#000000" stroke-width="0.688674197" fill-rule="nonzero"></path>
            </g>
        </g>
    </g>
</svg>